<svg xmlns="http://www.w3.org/2000/svg" width="160" height="30" viewBox="0 0 160 30" fill="none"><g clip-path="url(#clip0_2090_385)"><path d="M48.4431 8.37729V9.27189C48.4431 11.8456 47.6558 13.4907 45.9035 14.3142C48.0114 15.1359 48.8342 17.0251 48.8342 19.6767V21.7099C48.8342 25.5729 46.8025 27.64 42.8662 27.64H36.6865V2.62H42.6122C46.6908 2.62 48.4431 4.51594 48.4431 8.37729ZM40.6161 6.1967V12.8045H42.1534C43.6179 12.8045 44.5118 12.1607 44.5118 10.158V8.77037C44.5118 6.98287 43.904 6.1967 42.5106 6.1967H40.6161ZM40.6161 16.388V24.0751H42.8679C44.1901 24.0751 44.8995 23.4686 44.8995 21.6082V19.4276C44.8995 17.103 44.1495 16.388 42.3599 16.388H40.6161Z" fill="#24356C"></path><path d="M63.1546 27.64H59.1896L58.5127 23.1014H53.6898L53.0129 27.64H49.4033L53.4038 2.62H59.1575L63.1546 27.64ZM54.1856 19.7059H57.9729L56.0826 7.05193L54.1856 19.7059Z" fill="#24356C"></path><path d="M63.0322 2.62H75.1758V6.19501H71.067V27.64H67.1478V6.19501H63.0322V2.62Z" fill="#24356C"></path><path d="M87.2698 18.2393V21.4893C87.2698 25.4032 85.3143 27.64 81.5439 27.64C77.7736 27.64 75.8164 25.4032 75.8164 21.4893V8.77069C75.8164 4.85676 77.7719 2.62 81.5439 2.62C85.316 2.62 87.2698 4.86504 87.2698 8.77069V11.1465H83.6384V8.52566C83.6384 6.77896 82.8708 6.11505 81.6531 6.11505C80.4355 6.11505 79.6679 6.7773 79.6679 8.52566V21.7343C79.6679 23.481 80.4355 24.1102 81.6531 24.1102C82.8708 24.1102 83.6384 23.481 83.6384 21.7343V18.2393H87.2698Z" fill="#24356C"></path><path d="M93.0712 27.64H89.1367V2.62H93.0661V13.3433H97.5303V2.62H101.529V27.64H97.5354V16.9167H93.0712V27.64Z" fill="#24356C"></path><path d="M15.4904 3.48325C20.8816 3.48325 23.6548 5.73382 23.6548 9.09289C23.6542 9.40144 23.6297 9.70949 23.5813 10.0142C23.9514 9.13087 24.1415 8.18247 24.1407 7.22461C24.1407 5.31558 23.3829 3.48474 22.034 2.13485C20.6851 0.784969 18.8557 0.0266113 16.9481 0.0266113H0.267578V14.4226H4.95557V3.48325H15.4904Z" fill="#24356C"></path><path d="M18.6326 9.77266C18.6326 8.07713 17.3075 7.24536 14.8748 7.24536H9.91992V12.3319H14.8748C17.3075 12.3319 18.6326 11.4682 18.6326 9.77266Z" fill="#24356C"></path><path d="M19.7114 18.6518C19.7114 16.8331 18.324 15.9694 15.7363 15.9694H9.91504V21.3039H15.7363C18.3288 21.3039 19.7114 20.5009 19.7114 18.6518Z" fill="#3683BC"></path><path d="M22.1423 14.4481C23.7534 15.4079 24.7316 17.0074 24.7316 19.1764C24.7316 22.9066 21.7747 25.0644 16.1005 25.0644H5.15332V29.9702H21.5509C22.5709 29.9704 23.581 29.7695 24.5235 29.379C25.4659 28.9885 26.3223 28.4161 27.0436 27.6943C27.765 26.9726 28.3372 26.1157 28.7276 25.1726C29.118 24.2296 29.3189 23.2188 29.3189 22.198C29.3186 20.2389 28.5791 18.3522 27.2485 16.9153C25.9179 15.4784 24.0942 14.5973 22.1423 14.4481Z" fill="#3683BC"></path><path d="M104.529 2.62012V27.6401H110.693C114.59 27.6401 116.503 25.4598 116.503 21.4566V8.80363C116.503 4.80043 114.59 2.62012 110.693 2.62012H104.529ZM108.426 6.1944H110.622C111.862 6.1944 112.606 6.83777 112.606 8.62492V21.6353C112.606 23.4225 111.862 24.0658 110.622 24.0658H108.426V6.1944Z" fill="#3683BC"></path><path d="M131.601 27.6401L127.634 2.62012H121.93L117.963 27.6401H121.54L122.214 23.1008H126.996L127.669 27.6401H131.601ZM122.709 19.7052L124.587 7.05223L126.465 19.7052H122.709Z" fill="#3683BC"></path><path d="M132.282 2.62012V6.1944H136.356V27.6401H140.253V6.1944H144.327V2.62012H132.282Z" fill="#3683BC"></path><path d="M158.654 27.6401L154.687 2.62012H148.983L145.016 27.6401H148.593L149.267 23.1008H154.049L154.722 27.6401H158.654ZM149.763 19.7052L151.64 7.05223L153.518 19.7052H149.763Z" fill="#3683BC"></path></g><defs><clipPath id="clip0_2090_385"><rect width="159" height="30" fill="white" transform="translate(0.181641)"></rect></clipPath></defs></svg>